<svg xmlns="http://www.w3.org/2000/svg" xmlns:xlink="http://www.w3.org/1999/xlink" width="46" zoomAndPan="magnify" viewBox="0 0 34.5 34.5" height="46" preserveAspectRatio="xMidYMid meet" version="1.0"><defs><clipPath id="589817ba80"><path d="M 0 0 L 33.609375 0 L 33.609375 33.609375 L 0 33.609375 Z M 0 0 " clip-rule="nonzero"/></clipPath><clipPath id="c5be00d68e"><path d="M 16.804688 0 C 7.523438 0 0 7.523438 0 16.804688 C 0 26.085938 7.523438 33.609375 16.804688 33.609375 C 26.085938 33.609375 33.609375 26.085938 33.609375 16.804688 C 33.609375 7.523438 26.085938 0 16.804688 0 Z M 16.804688 0 " clip-rule="nonzero"/></clipPath><clipPath id="99130fec3a"><path d="M 0 0 L 33.609375 0 L 33.609375 33.609375 L 0 33.609375 Z M 0 0 " clip-rule="nonzero"/></clipPath><clipPath id="4d1fad9827"><path d="M 16.804688 0 C 7.523438 0 0 7.523438 0 16.804688 C 0 26.085938 7.523438 33.609375 16.804688 33.609375 C 26.085938 33.609375 33.609375 26.085938 33.609375 16.804688 C 33.609375 7.523438 26.085938 0 16.804688 0 Z M 16.804688 0 " clip-rule="nonzero"/></clipPath><clipPath id="2242ed4330"><rect x="0" width="34" y="0" height="34"/></clipPath><clipPath id="9fa16dce59"><path d="M 12 7.460938 L 22 7.460938 L 22 17 L 12 17 Z M 12 7.460938 " clip-rule="nonzero"/></clipPath><clipPath id="0b2e0b02ea"><path d="M 8.605469 17 L 24.867188 17 L 24.867188 25.941406 L 8.605469 25.941406 Z M 8.605469 17 " clip-rule="nonzero"/></clipPath></defs><g clip-path="url(#589817ba80)"><g clip-path="url(#c5be00d68e)"><g transform="matrix(1, 0, 0, 1, 0, -0.000000000000004968)"><g clip-path="url(#2242ed4330)"><g clip-path="url(#99130fec3a)"><g clip-path="url(#4d1fad9827)"><path fill="#ffffff" d="M 0 0 L 33.609375 0 L 33.609375 33.609375 L 0 33.609375 Z M 0 0 " fill-opacity="1" fill-rule="nonzero"/></g></g></g></g></g></g><g clip-path="url(#9fa16dce59)"><path fill="#000000" d="M 16.738281 16.472656 C 14.246094 16.472656 12.21875 14.453125 12.21875 11.96875 C 12.21875 9.484375 14.246094 7.464844 16.738281 7.464844 C 19.226562 7.464844 21.253906 9.484375 21.253906 11.96875 C 21.253906 14.453125 19.226562 16.472656 16.738281 16.472656 Z M 16.738281 8.363281 C 14.746094 8.363281 13.121094 9.980469 13.121094 11.96875 C 13.121094 13.957031 14.746094 15.574219 16.738281 15.574219 C 18.730469 15.574219 20.351562 13.957031 20.351562 11.96875 C 20.351562 9.980469 18.730469 8.363281 16.738281 8.363281 Z M 16.738281 8.363281 " fill-opacity="1" fill-rule="nonzero"/></g><g clip-path="url(#0b2e0b02ea)"><path fill="#000000" d="M 24.871094 25.9375 L 8.605469 25.9375 L 8.605469 25.484375 C 8.605469 21.015625 12.253906 17.375 16.738281 17.375 C 21.222656 17.375 24.871094 21.015625 24.871094 25.484375 Z M 9.523438 25.035156 L 23.953125 25.035156 C 23.71875 21.269531 20.570312 18.277344 16.738281 18.277344 C 12.902344 18.277344 9.757812 21.269531 9.523438 25.035156 Z M 9.523438 25.035156 " fill-opacity="1" fill-rule="nonzero"/></g></svg>