<svg xmlns="http://www.w3.org/2000/svg" xmlns:xlink="http://www.w3.org/1999/xlink" width="46" zoomAndPan="magnify" viewBox="0 0 34.5 34.5" height="46" preserveAspectRatio="xMidYMid meet" version="1.0"><defs><clipPath id="1f4d456497"><path d="M 0 0 L 33.609375 0 L 33.609375 33.609375 L 0 33.609375 Z M 0 0 " clip-rule="nonzero"/></clipPath><clipPath id="dff5037ac2"><path d="M 16.804688 0 C 7.523438 0 0 7.523438 0 16.804688 C 0 26.085938 7.523438 33.609375 16.804688 33.609375 C 26.085938 33.609375 33.609375 26.085938 33.609375 16.804688 C 33.609375 7.523438 26.085938 0 16.804688 0 Z M 16.804688 0 " clip-rule="nonzero"/></clipPath><clipPath id="630b0847bf"><path d="M 0 0 L 33.609375 0 L 33.609375 33.609375 L 0 33.609375 Z M 0 0 " clip-rule="nonzero"/></clipPath><clipPath id="c8ef977947"><path d="M 16.804688 0 C 7.523438 0 0 7.523438 0 16.804688 C 0 26.085938 7.523438 33.609375 16.804688 33.609375 C 26.085938 33.609375 33.609375 26.085938 33.609375 16.804688 C 33.609375 7.523438 26.085938 0 16.804688 0 Z M 16.804688 0 " clip-rule="nonzero"/></clipPath><clipPath id="f3cadc5ed5"><rect x="0" width="34" y="0" height="34"/></clipPath><clipPath id="b9aae615f3"><path d="M 12.027344 23 L 16.578125 23 L 16.578125 27.324219 L 12.027344 27.324219 Z M 12.027344 23 " clip-rule="nonzero"/></clipPath><clipPath id="727d4dc1f2"><path d="M 20.5625 23 L 25 23 L 25 27.324219 L 20.5625 27.324219 Z M 20.5625 23 " clip-rule="nonzero"/></clipPath><clipPath id="becd24d4a3"><path d="M 2.921875 6.625 L 27.953125 6.625 L 27.953125 22.679688 L 2.921875 22.679688 Z M 2.921875 6.625 " clip-rule="nonzero"/></clipPath></defs><g clip-path="url(#1f4d456497)"><g clip-path="url(#dff5037ac2)"><g transform="matrix(1, 0, 0, 1, 0, -0.000000000000004968)"><g clip-path="url(#f3cadc5ed5)"><g clip-path="url(#630b0847bf)"><g clip-path="url(#c8ef977947)"><path fill="#ffffff" d="M 0 0 L 33.609375 0 L 33.609375 33.609375 L 0 33.609375 Z M 0 0 " fill-opacity="1" fill-rule="nonzero"/></g></g></g></g></g></g><g clip-path="url(#b9aae615f3)"><path fill="#040606" d="M 14.082031 23.96875 C 14.789062 23.953125 15.378906 24.515625 15.394531 25.226562 C 15.394531 25.242188 15.394531 25.253906 15.394531 25.265625 C 15.40625 25.980469 14.835938 26.566406 14.128906 26.574219 C 13.421875 26.582031 12.839844 26.011719 12.832031 25.296875 C 12.832031 25.285156 12.832031 25.277344 12.832031 25.265625 C 12.828125 24.5625 13.382812 23.984375 14.082031 23.96875 Z M 14.054688 23.210938 C 12.949219 23.242188 12.074219 24.15625 12.074219 25.265625 C 12.0625 26.402344 12.96875 27.332031 14.097656 27.339844 C 15.21875 27.351562 16.144531 26.441406 16.152344 25.304688 C 16.152344 25.292969 16.152344 25.28125 16.152344 25.265625 C 16.152344 24.132812 15.242188 23.210938 14.113281 23.210938 C 14.097656 23.210938 14.074219 23.210938 14.054688 23.210938 " fill-opacity="1" fill-rule="nonzero"/></g><g clip-path="url(#727d4dc1f2)"><path fill="#040606" d="M 22.609375 23.96875 C 23.316406 23.953125 23.90625 24.515625 23.921875 25.226562 C 23.921875 25.242188 23.921875 25.253906 23.921875 25.265625 C 23.933594 25.980469 23.363281 26.566406 22.652344 26.574219 C 21.945312 26.582031 21.363281 26.011719 21.359375 25.296875 C 21.359375 25.285156 21.359375 25.277344 21.359375 25.265625 C 21.351562 24.5625 21.910156 23.984375 22.609375 23.96875 Z M 22.59375 23.199219 C 21.480469 23.226562 20.59375 24.148438 20.601562 25.265625 C 20.59375 26.402344 21.5 27.328125 22.625 27.335938 C 23.75 27.34375 24.671875 26.429688 24.679688 25.296875 C 24.679688 25.285156 24.679688 25.277344 24.679688 25.265625 C 24.6875 24.132812 23.777344 23.207031 22.652344 23.199219 C 22.632812 23.199219 22.613281 23.199219 22.59375 23.199219 " fill-opacity="1" fill-rule="nonzero"/></g><g clip-path="url(#becd24d4a3)"><path fill="#040606" d="M 9.375 10.914062 L 27.128906 10.914062 L 25.085938 19.136719 L 11.382812 19.136719 Z M 3.296875 6.621094 C 3.089844 6.625 2.917969 6.796875 2.921875 7.007812 C 2.925781 7.214844 3.089844 7.382812 3.296875 7.386719 L 6.152344 7.386719 C 7.082031 7.386719 7.890625 8.023438 8.113281 8.933594 L 10.988281 20.714844 C 11.265625 21.851562 12.277344 22.652344 13.4375 22.652344 L 25.820312 22.652344 C 26.027344 22.644531 26.195312 22.472656 26.191406 22.261719 C 26.1875 22.058594 26.023438 21.890625 25.820312 21.886719 L 13.4375 21.886719 C 12.625 21.886719 11.917969 21.328125 11.722656 20.535156 L 11.570312 19.898438 L 25.679688 19.898438 L 27.941406 10.785156 C 28.007812 10.511719 27.84375 10.238281 27.574219 10.167969 C 27.535156 10.160156 27.492188 10.152344 27.453125 10.152344 L 9.191406 10.152344 L 8.847656 8.75 C 8.542969 7.503906 7.429688 6.621094 6.152344 6.621094 L 3.296875 6.621094 " fill-opacity="1" fill-rule="nonzero"/></g></svg>