<svg xmlns="http://www.w3.org/2000/svg" xmlns:xlink="http://www.w3.org/1999/xlink" width="27" zoomAndPan="magnify" viewBox="0 0 20.25 20.999999" height="28" preserveAspectRatio="xMidYMid meet" version="1.0"><defs><clipPath id="5ebfcb5a36"><path d="M 0 0.375 L 18.851562 0.375 L 18.851562 20.160156 L 0 20.160156 Z M 0 0.375 " clip-rule="nonzero"/></clipPath><clipPath id="0b78bb79b1"><path d="M 0 16.035156 L 0 20.160156 L 14.722656 20.160156 L 18.851562 16.035156 L 18.851562 0.371094 L 0 0.371094 Z M 0 16.035156 " clip-rule="nonzero"/></clipPath><clipPath id="f9891fe305"><path d="M 0 0.375 L 18.851562 0.375 L 18.851562 20.160156 L 0 20.160156 Z M 0 0.375 " clip-rule="nonzero"/></clipPath><clipPath id="5161a2ba0a"><path d="M 0 16.035156 L 0 20.160156 L 14.722656 20.160156 L 18.851562 16.035156 L 18.851562 0.371094 L 0 0.371094 Z M 0 16.035156 " clip-rule="nonzero"/></clipPath><clipPath id="1224160b62"><rect x="0" width="19" y="0" height="21"/></clipPath><clipPath id="cc1e837489"><path d="M 6.5625 4.457031 L 12.347656 4.457031 L 12.347656 15.304688 L 6.5625 15.304688 Z M 6.5625 4.457031 " clip-rule="nonzero"/></clipPath></defs><g clip-path="url(#5ebfcb5a36)"><g clip-path="url(#0b78bb79b1)"><g transform="matrix(1, 0, 0, 1, 0, -0.000000000000000777)"><g clip-path="url(#1224160b62)"><g clip-path="url(#f9891fe305)"><g clip-path="url(#5161a2ba0a)"><path fill="#ffbd2b" d="M 0 20.160156 L 0 0.363281 L 18.851562 0.363281 L 18.851562 20.160156 Z M 0 20.160156 " fill-opacity="1" fill-rule="nonzero"/></g></g></g></g></g></g><g clip-path="url(#cc1e837489)"><path fill="#000000" d="M 11.960938 10.441406 L 12.210938 8.488281 L 10.273438 8.488281 L 10.273438 7.238281 C 10.273438 6.671875 10.433594 6.285156 11.246094 6.285156 L 12.28125 6.285156 L 12.28125 4.535156 C 12.101562 4.511719 11.488281 4.457031 10.769531 4.457031 C 9.277344 4.457031 8.253906 5.367188 8.253906 7.042969 L 8.253906 8.488281 L 6.566406 8.488281 L 6.566406 10.441406 L 8.253906 10.441406 L 8.253906 15.464844 L 10.273438 15.464844 L 10.273438 10.441406 Z M 11.960938 10.441406 " fill-opacity="1" fill-rule="nonzero"/></g></svg>