<svg xmlns="http://www.w3.org/2000/svg" xmlns:xlink="http://www.w3.org/1999/xlink" width="27" zoomAndPan="magnify" viewBox="0 0 20.25 20.999999" height="28" preserveAspectRatio="xMidYMid meet" version="1.0"><defs><clipPath id="90453f3f8c"><path d="M 0 0.375 L 18.851562 0.375 L 18.851562 20.160156 L 0 20.160156 Z M 0 0.375 " clip-rule="nonzero"/></clipPath><clipPath id="d022cb72d2"><path d="M 0 16.035156 L 0 20.160156 L 14.722656 20.160156 L 18.851562 16.035156 L 18.851562 0.371094 L 0 0.371094 Z M 0 16.035156 " clip-rule="nonzero"/></clipPath><clipPath id="9646818ff1"><path d="M 0 0.375 L 18.851562 0.375 L 18.851562 20.160156 L 0 20.160156 Z M 0 0.375 " clip-rule="nonzero"/></clipPath><clipPath id="44027d77bb"><path d="M 0 16.035156 L 0 20.160156 L 14.722656 20.160156 L 18.851562 16.035156 L 18.851562 0.371094 L 0 0.371094 Z M 0 16.035156 " clip-rule="nonzero"/></clipPath><clipPath id="58f5f70980"><rect x="0" width="19" y="0" height="21"/></clipPath><clipPath id="1819393dc9"><path d="M 3.597656 4.441406 L 15.167969 4.441406 L 15.167969 16.011719 L 3.597656 16.011719 Z M 3.597656 4.441406 " clip-rule="nonzero"/></clipPath></defs><g clip-path="url(#90453f3f8c)"><g clip-path="url(#d022cb72d2)"><g transform="matrix(1, 0, 0, 1, 0, -0.000000000000000777)"><g clip-path="url(#58f5f70980)"><g clip-path="url(#9646818ff1)"><g clip-path="url(#44027d77bb)"><path fill="#ffbd2b" d="M 0 20.160156 L 0 0.363281 L 18.851562 0.363281 L 18.851562 20.160156 Z M 0 20.160156 " fill-opacity="1" fill-rule="nonzero"/></g></g></g></g></g></g><g clip-path="url(#1819393dc9)"><path fill="#000000" d="M 9.417969 5.492188 C 10.972656 5.492188 11.15625 5.496094 11.773438 5.523438 C 12.339844 5.550781 12.648438 5.644531 12.855469 5.726562 C 13.125 5.832031 13.320312 5.957031 13.523438 6.160156 C 13.726562 6.367188 13.851562 6.558594 13.960938 6.832031 C 14.039062 7.035156 14.132812 7.34375 14.160156 7.914062 C 14.191406 8.527344 14.195312 8.710938 14.195312 10.265625 C 14.195312 11.820312 14.191406 12.003906 14.160156 12.621094 C 14.136719 13.1875 14.042969 13.496094 13.960938 13.703125 C 13.855469 13.972656 13.726562 14.167969 13.523438 14.371094 C 13.320312 14.574219 13.125 14.699219 12.855469 14.808594 C 12.652344 14.886719 12.339844 14.980469 11.773438 15.007812 C 11.15625 15.039062 10.972656 15.042969 9.417969 15.042969 C 7.863281 15.042969 7.679688 15.039062 7.066406 15.007812 C 6.5 14.984375 6.191406 14.890625 5.984375 14.808594 C 5.710938 14.703125 5.519531 14.574219 5.3125 14.371094 C 5.109375 14.167969 4.984375 13.972656 4.878906 13.703125 C 4.796875 13.5 4.703125 13.191406 4.675781 12.621094 C 4.648438 12.003906 4.644531 11.820312 4.644531 10.265625 C 4.644531 8.710938 4.648438 8.527344 4.675781 7.914062 C 4.703125 7.347656 4.796875 7.039062 4.878906 6.832031 C 4.980469 6.558594 5.109375 6.367188 5.3125 6.160156 C 5.519531 5.957031 5.710938 5.832031 5.984375 5.726562 C 6.1875 5.644531 6.496094 5.550781 7.066406 5.523438 C 7.679688 5.496094 7.863281 5.492188 9.417969 5.492188 M 9.417969 4.441406 C 7.835938 4.441406 7.640625 4.449219 7.015625 4.476562 C 6.394531 4.503906 5.972656 4.605469 5.601562 4.746094 C 5.21875 4.894531 4.894531 5.09375 4.570312 5.417969 C 4.25 5.742188 4.050781 6.066406 3.902344 6.449219 C 3.757812 6.820312 3.660156 7.246094 3.632812 7.863281 C 3.605469 8.484375 3.597656 8.683594 3.597656 10.265625 C 3.597656 11.847656 3.605469 12.042969 3.632812 12.667969 C 3.660156 13.285156 3.757812 13.710938 3.902344 14.082031 C 4.050781 14.464844 4.25 14.789062 4.574219 15.113281 C 4.898438 15.4375 5.222656 15.636719 5.605469 15.78125 C 5.976562 15.925781 6.398438 16.027344 7.019531 16.054688 C 7.640625 16.082031 7.839844 16.089844 9.421875 16.089844 C 11.003906 16.089844 11.199219 16.082031 11.824219 16.054688 C 12.445312 16.027344 12.867188 15.925781 13.238281 15.78125 C 13.621094 15.636719 13.945312 15.4375 14.269531 15.113281 C 14.59375 14.789062 14.792969 14.464844 14.941406 14.082031 C 15.082031 13.710938 15.183594 13.285156 15.210938 12.667969 C 15.238281 12.046875 15.246094 11.847656 15.246094 10.265625 C 15.246094 8.679688 15.238281 8.484375 15.210938 7.863281 C 15.183594 7.242188 15.082031 6.816406 14.941406 6.449219 C 14.792969 6.066406 14.59375 5.742188 14.269531 5.417969 C 13.945312 5.09375 13.621094 4.894531 13.238281 4.746094 C 12.867188 4.601562 12.445312 4.503906 11.824219 4.476562 C 11.199219 4.449219 11 4.441406 9.417969 4.441406 " fill-opacity="1" fill-rule="nonzero"/></g><path fill="#000000" d="M 9.417969 7.273438 C 7.765625 7.273438 6.429688 8.613281 6.429688 10.265625 C 6.429688 11.914062 7.769531 13.257812 9.421875 13.257812 C 11.074219 13.257812 12.414062 11.917969 12.414062 10.265625 C 12.410156 8.613281 11.070312 7.273438 9.417969 7.273438 M 9.417969 12.207031 C 8.347656 12.207031 7.480469 11.339844 7.480469 10.265625 C 7.480469 9.195312 8.347656 8.328125 9.417969 8.328125 C 10.492188 8.328125 11.359375 9.195312 11.359375 10.265625 C 11.363281 11.335938 10.492188 12.207031 9.417969 12.207031 " fill-opacity="1" fill-rule="nonzero"/><path fill="#000000" d="M 13.226562 7.15625 C 13.226562 7.542969 12.914062 7.855469 12.527344 7.855469 C 12.140625 7.855469 11.828125 7.542969 11.828125 7.15625 C 11.828125 6.773438 12.140625 6.457031 12.527344 6.457031 C 12.914062 6.457031 13.226562 6.769531 13.226562 7.15625 " fill-opacity="1" fill-rule="nonzero"/></svg>